<svg width="18" height="20" viewBox="0 0 18 20" fill="none" xmlns="http://www.w3.org/2000/svg">
<path fill-rule="evenodd" clip-rule="evenodd" d="M3.28564 3.14314H14.7142V16.8574C14.7142 17.4636 14.4734 18.045 14.0447 18.4737C13.6161 18.9023 13.0347 19.1431 12.4285 19.1431H5.57136C4.96515 19.1431 4.38377 18.9023 3.95511 18.4737C3.52646 18.045 3.28564 17.4636 3.28564 16.8574V3.14314ZM8.99993 0.857422C9.57659 0.857239 10.132 1.07503 10.5548 1.46713C10.9777 1.85924 11.2367 2.39667 11.2799 2.97171L11.2856 3.14314H6.71422C6.71422 2.53693 6.95503 1.95555 7.38369 1.52689C7.81234 1.09824 8.39372 0.857422 8.99993 0.857422V0.857422Z" stroke="#E32C15" stroke-width="1.2" stroke-linecap="round" stroke-linejoin="round"/>
<path d="M1 3.14355H17" stroke="#E32C15" stroke-width="1.2" stroke-linecap="round" stroke-linejoin="round"/>
<path d="M6.71436 6.57129V15.7141" stroke="#E32C15" stroke-width="1.2" stroke-linecap="round" stroke-linejoin="round"/>
<path d="M11.2856 6.57129V15.7141" stroke="#E32C15" stroke-width="1.2" stroke-linecap="round" stroke-linejoin="round"/>
</svg>
